<svg width="410" height="389" viewBox="0 0 410 389" fill="none" xmlns="http://www.w3.org/2000/svg">
<g clip-path="url(#clip0_16_101)">
<path d="M327.04 67.47C314.99 64.66 303.01 70.44 299.93 72.1C306.73 64.44 313.75 56.99 320.99 49.77C323.04 49.99 333.84 50.8 341.87 44.94C348.95 39.77 345.04 27.44 335.79 29.05C327.33 30.53 322.08 42.23 320.64 49.73C320.64 49.73 320.67 49.73 320.7 49.73C310.49 59.66 300.7 70.05 291.35 80.83C291.61 77.75 292.42 62.67 284.03 51.58C280.37 46.74 274.62 44.72 268.97 47.43C264.27 49.68 260.95 54.72 261.71 60.01C263.43 72.03 280.24 79.39 290.92 81.33C281.51 92.21 272.57 103.5 264.14 115.14C264.83 109.69 265.79 94.89 258.18 83.06C254.36 77.12 247.67 74.49 241.03 77.41C235.35 79.91 231.4 85.87 232.54 92.15C234.84 104.89 251.06 113.8 262.78 117.02C255.57 127.07 248.73 137.38 242.32 147.93L243.85 148.84C246.53 144.31 249.3 139.83 252.13 135.38C255.04 140.8 258.89 145.82 263.2 150.15C269.68 156.67 280.35 164.82 290.22 162.48C296.79 160.92 301.37 154.75 302.12 148.2C303 140.45 298.36 134.36 291.27 131.75C275.96 126.1 259.42 130.99 253.58 133.1C260.75 121.97 268.39 111.12 276.44 100.59C279.11 104.94 282.58 108.91 286.42 112.25C291.86 116.97 300.69 122.75 308.27 120.25C320.26 116.29 318.66 99.4 307.31 96.02C295 92.35 282.25 96.99 277.7 98.96C284.62 89.99 291.84 81.25 299.35 72.77C305.02 81.1 318.29 93.28 329.15 89.18C339.91 85.12 337.48 69.89 327.06 67.46L327.04 67.47Z" fill="#E5EBFE"/>
<path d="M309.63 60.51C309.63 60.51 314.21 45.85 308.08 33.68C305.5 28.55 300.25 25.98 294.71 28.06C290.06 29.81 286.83 34.42 287.65 39.45C289.27 49.39 300.82 57.26 309.62 60.5L309.63 60.51Z" fill="#E5EBFE"/>
<path d="M167.24 89.63C167.24 89.63 149.66 94.89 141.7 109.08C135.02 120.99 137.23 135.39 138.12 139.72C131.95 130.92 125.57 122.27 119.09 113.77C117.32 111.45 115.53 109.11 113.73 106.78C133.62 100.66 144.41 82.3 140.06 61.84C140.06 61.84 124.24 66.1 116.78 78.57C110.66 88.8 112.07 101.38 112.78 105.56C105.16 95.76 97.15 86.03 88.25 77.35C105.08 70.62 113.09 53.93 107.78 36.52C107.78 36.52 94.46 41.39 88.96 52.71C84.21 62.51 86.88 73.92 87.68 76.81C84.12 73.36 80.42 70.08 76.53 67.03C76.4 66.49 73.81 56.43 65.94 51.42C57.85 46.27 47.26 48.43 47.26 48.43C50.83 61.94 62.74 69.49 76.47 67.09C92.7 80.38 105.68 97.82 117.94 114.64C120.27 117.84 122.59 121.07 124.89 124.31C121.15 122.39 109.56 117.19 97.92 119.94C83.78 123.27 74.93 137.06 74.93 137.06C93.11 147.4 113.94 142.69 125.76 125.54C132.74 135.41 139.53 145.44 145.96 155.68C142.06 153.84 128.49 148.21 115.26 151.93C99.6 156.34 90.36 172.18 90.36 172.18C100.11 177.19 112.38 179.52 123 176.22C132.81 173.18 141.26 165.46 146.69 156.83C149.58 161.45 152.39 166.11 155.12 170.81L157.58 169.34C151.7 159.67 145.43 150.18 138.92 140.86C148.91 137.56 158.76 130.84 163.95 121.58C169.23 112.17 169.77 100.01 167.24 89.65V89.63Z" fill="#E8EEFE"/>
<path d="M99.75 92.13C99.75 92.13 87.69 84.67 75.4 87.35C63.11 90.03 55.25 101.84 55.25 101.84C71.05 111.17 89.27 107.19 99.76 92.14L99.75 92.13Z" fill="#E8EEFE"/>
<path d="M99.15 52.07C100.86 48.52 102.55 43.98 105.48 41.22C105.48 41.22 105.36 41.32 105.13 41.51C103.38 43.15 102.17 45.55 101.03 47.64C100.67 46.81 100.2 46.05 99.57 45.4C100.16 46.18 100.58 47.07 100.83 48.02C99.2 51.03 97.73 54.13 96.3 57.24C95.7 55.4 94.31 53.81 92.96 52.48C94.3 53.92 95.71 55.73 96.09 57.71C94.35 61.51 92.7 65.36 91.13 69.24C90.74 67.28 90.12 65.3 88.92 63.69C90.12 65.5 90.65 67.69 90.9 69.83C89.87 72.37 88.87 74.92 87.91 77.48C89.02 74.91 90.12 72.34 91.23 69.78C92.06 67.85 92.89 65.94 93.73 64.03C95.84 62.57 98.34 61.62 100.89 61.33C98.52 61.46 96 62.26 93.97 63.48C95.53 59.93 97.12 56.39 98.78 52.89C100.23 51.32 101.94 49.8 104.12 49.46C102.17 49.66 100.59 50.79 99.17 52.07H99.15Z" fill="#BDD0FB"/>
<path d="M130.42 79.98C132.74 76.06 136.01 71.53 136.79 66.94C136.79 66.94 136.77 67.12 136.74 67.46C136.29 70.19 134.75 72.89 133.48 75.33C134.51 75.14 135.54 75.11 136.57 75.3C135.44 75.23 134.32 75.4 133.25 75.77C131.4 79.27 129.36 82.66 127.29 86.03C129.44 85.43 131.86 85.75 134.01 86.2C131.77 85.84 129.13 85.63 126.98 86.54C124.44 90.65 121.8 94.69 119.08 98.69C121.21 97.81 123.51 97.14 125.84 97.26C123.36 97.2 120.84 98.18 118.68 99.29C116.89 101.9 115.09 104.5 113.24 107.07C115 104.36 116.76 101.66 118.52 98.95C119.84 96.92 121.15 94.89 122.45 92.86C122.5 89.94 121.86 86.83 120.46 84.25C121.86 86.59 122.7 89.57 122.82 92.28C125.23 88.51 127.62 84.71 129.92 80.87C130.5 78.47 130.87 75.85 129.79 73.54C130.85 75.54 130.78 77.79 130.46 79.97L130.42 79.98Z" fill="#BDD0FB"/>
<path d="M154.91 109.07C157.39 104.61 159.92 98.89 163.92 95.55C163.92 95.55 163.75 95.67 163.44 95.9C161.05 97.88 159.31 100.89 157.67 103.5C157.27 102.4 156.72 101.38 155.96 100.49C156.67 101.55 157.13 102.73 157.38 103.97C155.04 107.74 152.91 111.62 150.82 115.53C150.19 113.11 148.52 110.95 146.87 109.13C148.49 111.09 150.17 113.53 150.51 116.13C147.97 120.9 145.55 125.74 143.22 130.63C142.87 128.07 142.22 125.47 140.79 123.29C142.24 125.65 142.72 128.65 142.87 131.36C141.35 134.56 139.86 137.78 138.42 141.01C140.05 137.78 141.67 134.55 143.29 131.32C144.51 128.89 145.73 126.49 146.96 124.09C149.76 122.39 153.13 121.26 156.41 121.16C153.35 121.12 150 122 147.31 123.41C149.6 118.95 151.92 114.5 154.34 110.11C156.33 108.2 158.66 106.36 161.5 106.1C158.97 106.21 156.84 107.54 154.91 109.09V109.07Z" fill="#BDD0FB"/>
<path d="M72.41 97.11C68.56 97.94 63.75 98.52 60.38 100.72C60.38 100.72 60.51 100.62 60.74 100.45C62.74 99.13 65.36 98.52 67.66 97.9C66.94 97.35 66.31 96.72 65.82 95.96C66.44 96.72 67.21 97.33 68.07 97.8C71.38 96.92 74.74 96.22 78.1 95.56C76.45 94.55 75.23 92.82 74.26 91.19C75.34 92.83 76.77 94.63 78.61 95.46C82.71 94.66 86.84 93.97 90.98 93.34C89.17 92.5 87.39 91.43 86.1 89.88C87.57 91.47 89.59 92.5 91.6 93.24C94.31 92.84 97.03 92.46 99.74 92.13C96.99 92.6 94.23 93.07 91.47 93.54C89.4 93.89 87.35 94.25 85.29 94.62C83.38 96.33 81.86 98.54 80.99 100.95C81.67 98.68 83.05 96.41 84.71 94.73C80.89 95.41 77.08 96.13 73.29 96.92C71.42 97.96 69.54 99.27 68.71 101.31C69.36 99.47 70.83 98.19 72.41 97.11Z" fill="#BDD0FB"/>
<path d="M59.09 55.07C56.56 53.45 53.65 51.18 50.64 50.56C50.64 50.56 50.76 50.58 50.98 50.61C52.77 50.97 54.52 52.05 56.09 52.95C55.99 52.27 55.99 51.59 56.14 50.91C56.07 51.65 56.16 52.4 56.37 53.11C58.63 54.41 60.82 55.84 63 57.29C62.65 55.86 62.92 54.27 63.27 52.86C62.98 54.33 62.78 56.07 63.33 57.51C65.98 59.28 68.58 61.12 71.16 63.01C70.62 61.57 70.27 60.07 70.38 58.52C70.37 60.18 70.83 61.8 71.55 63.29C73.23 64.53 74.9 65.78 76.55 67.06C74.81 65.84 73.06 64.61 71.32 63.38C70.01 62.46 68.71 61.55 67.4 60.65C65.44 60.55 63.46 60.97 61.67 61.76C63.29 60.92 65.19 60.41 67.02 60.39C64.59 58.71 62.14 57.05 59.66 55.44C58.09 55 56.37 54.7 54.82 55.35C56.16 54.7 57.65 54.8 59.08 55.06L59.09 55.07Z" fill="#BDD0FB"/>
<path d="M95.15 133.34C90.71 134.37 85.4 136.11 80.8 135.46C80.8 135.46 80.98 135.5 81.31 135.57C84.05 135.97 87.09 135.32 89.8 134.84C89.31 135.77 88.96 136.74 88.83 137.77C89.11 136.67 89.61 135.66 90.29 134.74C94.18 134.03 98.04 133.12 101.88 132.16C100.65 134.03 100.23 136.43 100 138.61C100.33 136.37 100.94 133.78 102.46 132.01C107.14 130.84 111.8 129.54 116.43 128.16C114.94 129.92 113.61 131.92 113.02 134.17C113.72 131.79 115.41 129.68 117.12 127.96C120.15 127.05 123.17 126.11 126.18 125.13C123.07 125.99 119.95 126.85 116.84 127.7C114.5 128.34 112.18 128.98 109.85 129.6C107.05 128.76 104.28 127.21 102.25 125.09C104.05 127.14 106.64 128.83 109.19 129.77C104.86 130.93 100.53 132.05 96.17 133.08C93.71 132.9 91.1 132.46 89.22 130.74C90.8 132.35 92.97 132.97 95.15 133.32V133.34Z" fill="#BDD0FB"/>
<path d="M112.15 164.73C107.24 166.09 101.08 167.21 96.89 170.31C96.89 170.31 97.05 170.18 97.34 169.93C99.82 168.07 103.16 167.08 106.08 166.11C105.1 165.46 104.24 164.69 103.56 163.74C104.42 164.67 105.46 165.4 106.61 165.94C110.82 164.55 115.1 163.39 119.39 162.28C117.19 161.1 115.48 158.96 114.09 156.93C115.62 158.96 117.59 161.18 120.04 162.11C125.27 160.76 130.55 159.55 135.85 158.43C133.44 157.49 131.07 156.24 129.29 154.34C131.3 156.3 133.99 157.46 136.65 158.26C140.12 157.54 143.59 156.84 147.08 156.2C143.56 157.02 140.04 157.84 136.51 158.66C133.86 159.28 131.24 159.9 128.62 160.53C126.31 162.85 124.42 165.86 123.55 169.03C124.23 166.05 125.87 163 127.87 160.71C122.99 161.89 118.13 163.1 113.29 164.42C110.96 165.91 108.63 167.74 107.71 170.44C108.41 168.01 110.21 166.24 112.16 164.73H112.15Z" fill="#BDD0FB"/>
<path d="M348.71 147.01C355.57 163.98 347.83 183.12 347.83 183.12C323.69 171.8 313.49 146.6 322.98 121.66C322.98 121.66 341.85 130.04 348.71 147.01Z" fill="#D8E1FE"/>
<path d="M333.98 145.13C331.85 139.8 329.84 133.06 325.85 128.76C325.85 128.76 326.02 128.92 326.33 129.21C328.71 131.76 330.23 135.37 331.68 138.51C332.29 137.34 333.04 136.28 334.02 135.4C333.08 136.48 332.39 137.73 331.94 139.08C334.01 143.62 335.84 148.26 337.62 152.92C338.67 150.31 340.84 148.14 342.94 146.34C340.86 148.3 338.62 150.78 337.88 153.63C340.04 159.32 342.05 165.07 343.95 170.85C344.71 168.04 345.81 165.23 347.71 163C345.79 165.5 344.8 168.64 344.24 171.72C345.48 175.51 346.69 179.31 347.83 183.13C346.48 179.29 345.13 175.45 343.77 171.62C342.75 168.74 341.73 165.88 340.7 163.02C337.78 160.7 334.24 159.06 330.57 158.4C334 158.82 337.58 160.24 340.41 162.21C338.49 156.9 336.53 151.61 334.46 146.36C332.51 143.94 330.17 141.56 327.04 140.86C329.85 141.34 332.04 143.14 333.98 145.13Z" fill="#BDD0FB"/>
<path d="M305.77 181.85C315.37 200.69 308.39 223.49 308.39 223.49C279.45 212.92 265.19 184.89 273.61 155.27C273.61 155.27 296.16 163.01 305.77 181.85Z" fill="#D8E1FE"/>
<path d="M285.83 182.57C282.84 176.65 278.54 169.75 277.86 163.02C277.86 163.02 277.86 163.29 277.88 163.78C278.27 167.79 280.23 171.87 281.85 175.53C280.37 175.16 278.88 175.01 277.37 175.18C279.02 175.19 280.63 175.55 282.15 176.19C284.5 181.45 287.12 186.58 289.8 191.68C286.73 190.59 283.19 190.82 280.03 191.26C283.32 190.95 287.18 190.92 290.21 192.45C293.49 198.66 296.94 204.8 300.49 210.87C297.48 209.38 294.21 208.19 290.82 208.13C294.42 208.29 297.99 209.96 301.02 211.78C303.36 215.75 305.73 219.7 308.16 223.61C305.87 219.51 303.58 215.4 301.29 211.3C299.57 208.22 297.87 205.15 296.19 202.08C296.4 197.83 297.64 193.38 299.93 189.77C297.66 193.03 296.16 197.27 295.71 201.2C292.58 195.48 289.49 189.74 286.53 183.94C285.93 180.4 285.65 176.56 287.44 173.31C285.71 176.11 285.59 179.38 285.84 182.58L285.83 182.57Z" fill="#BDD0FB"/>
<path d="M266.58 223.71C276.75 245.09 268.22 270.4 268.22 270.4C253.79 264.7 239.79 253.84 233.05 239.65C226.31 225.46 226.72 207.75 231.41 192.96C231.41 192.96 256.41 202.33 266.58 223.71Z" fill="#D8E1FE"/>
<path d="M247.42 222.41C244.26 215.7 241.14 207.14 235.66 201.9C235.66 201.9 235.89 202.09 236.32 202.45C239.59 205.56 241.83 210.1 243.95 214.05C244.64 212.49 245.53 211.07 246.73 209.85C245.6 211.31 244.81 212.98 244.33 214.77C247.35 220.47 250.07 226.32 252.72 232.2C253.88 228.75 256.51 225.78 259.09 223.29C256.55 225.98 253.86 229.36 253.12 233.09C256.34 240.27 259.38 247.54 262.29 254.86C263.05 251.18 264.25 247.47 266.54 244.44C264.2 247.73 263.21 252.03 262.73 255.96C264.62 260.76 266.47 265.57 268.24 270.41C266.2 265.56 264.16 260.71 262.11 255.86C260.57 252.22 259.04 248.6 257.49 245C253.59 242.26 248.82 240.28 244.05 239.81C248.49 240.06 253.27 241.66 257.04 243.97C254.15 237.27 251.22 230.58 248.14 223.97C245.43 220.99 242.24 218.1 238.14 217.44C241.8 217.84 244.77 220 247.42 222.42V222.41Z" fill="#BDD0FB"/>
<path d="M365.01 198.68C347.43 193.58 329.18 203.23 329.18 203.23C342.92 226.12 368.99 233.68 392.85 221.69C392.85 221.69 382.59 203.77 365.01 198.68Z" fill="#D8E1FE"/>
<path d="M368.39 213.14C373.91 214.72 380.82 216.03 385.51 219.56C385.51 219.56 385.34 219.41 385.01 219.13C382.23 217.02 378.49 215.87 375.21 214.75C376.31 214.03 377.29 213.17 378.07 212.11C377.09 213.15 375.92 213.96 374.62 214.55C369.9 212.95 365.09 211.6 360.28 210.31C362.77 209 364.71 206.62 366.29 204.34C364.56 206.61 362.31 209.09 359.55 210.11C353.67 208.55 347.75 207.13 341.8 205.82C344.51 204.78 347.2 203.4 349.22 201.28C346.92 203.45 343.9 204.75 340.9 205.62C337 204.77 333.1 203.96 329.19 203.21C333.14 204.17 337.1 205.12 341.06 206.07C344.03 206.79 346.98 207.51 349.92 208.24C352.53 210.9 354.52 214.27 355.55 217.85C354.78 214.48 353.01 211.06 350.76 208.45C356.24 209.82 361.7 211.23 367.13 212.75C369.74 214.45 372.34 216.52 373.36 219.57C372.6 216.83 370.59 214.83 368.4 213.11L368.39 213.14Z" fill="#BDD0FB"/>
<path d="M382.26 147.4C370.01 154.08 365.32 169.1 365.32 169.1C385.06 174 403.15 164.2 409.68 144.89C409.68 144.89 394.51 140.71 382.26 147.39V147.4Z" fill="#D8E1FE"/>
<path d="M391.85 153.41C395.68 151.3 400.13 148.3 404.56 147.69C404.56 147.69 404.39 147.7 404.06 147.72C401.42 148.07 398.78 149.46 396.41 150.61C396.62 149.63 396.69 148.64 396.54 147.64C396.57 148.73 396.37 149.8 395.99 150.82C392.58 152.49 389.25 154.34 385.96 156.23C386.6 154.18 386.37 151.85 386 149.78C386.28 151.94 386.4 154.48 385.46 156.52C381.44 158.83 377.48 161.25 373.56 163.73C374.48 161.69 375.13 159.54 375.14 157.29C374.99 159.7 374.17 162.01 372.97 164.11C370.41 165.74 367.86 167.4 365.34 169.1C367.99 167.49 370.64 165.88 373.3 164.28C375.29 163.07 377.28 161.88 379.26 160.7C382.12 160.74 384.95 161.56 387.47 162.88C385.2 161.5 382.49 160.58 379.83 160.37C383.53 158.17 387.24 156 391 153.91C393.32 153.43 395.85 153.15 398.03 154.26C396.14 153.19 393.98 153.18 391.88 153.43L391.85 153.41Z" fill="#BDD0FB"/>
<path d="M329.09 243.75C308.88 237.52 287.62 248.31 287.62 248.31C302.96 275.02 333.1 284.23 360.8 270.86C360.8 270.86 349.3 249.97 329.09 243.74V243.75Z" fill="#D8E1FE"/>
<path d="M331.8 263.52C338.14 265.45 345.68 268.5 352.43 268.01C352.43 268.01 352.17 268.05 351.67 268.12C347.65 268.43 343.3 267.19 339.42 266.23C340.04 267.62 340.45 269.06 340.54 270.59C340.25 268.97 339.61 267.44 338.72 266.05C333.14 264.64 327.63 262.94 322.15 261.17C323.75 264 324.13 267.53 324.24 270.72C323.98 267.43 323.35 263.62 321.32 260.9C314.64 258.73 308 256.39 301.41 253.94C303.39 256.65 305.13 259.67 305.77 263C304.99 259.48 302.74 256.25 300.42 253.57C296.11 251.95 291.81 250.29 287.54 248.57C291.98 250.12 296.41 251.68 300.85 253.23C304.18 254.39 307.5 255.54 310.81 256.67C314.96 255.73 319.13 253.75 322.29 250.87C319.47 253.66 315.55 255.87 311.75 256.99C317.92 259.09 324.11 261.15 330.33 263.07C333.92 263.06 337.75 262.67 340.64 260.35C338.18 262.53 334.98 263.21 331.78 263.52H331.8Z" fill="#BDD0FB"/>
<path d="M300.78 288.49C278.47 280.55 254.17 291.61 254.17 291.61C261.16 305.04 272.9 317.5 287.17 323.01C302.26 328.84 320.31 326.66 334.96 320.34C334.96 320.34 323.1 296.42 300.79 288.48L300.78 288.49Z" fill="#D8E1FE"/>
<path d="M304.03 307.43C311.03 309.89 319.86 312.12 325.63 317.04C325.63 317.04 325.42 316.83 325.02 316.44C321.6 313.5 316.85 311.74 312.7 310.03C314.18 309.18 315.5 308.15 316.59 306.84C315.25 308.11 313.67 309.07 311.95 309.73C305.97 307.3 299.87 305.19 293.76 303.16C297.08 301.66 299.76 298.73 301.97 295.92C299.56 298.72 296.47 301.74 292.83 302.86C285.36 300.39 277.82 298.11 270.24 295.96C273.82 294.83 277.39 293.25 280.17 290.67C277.06 293.31 273.03 294.74 269.1 295.64C264.13 294.25 259.16 292.9 254.16 291.63C259.19 293.17 264.23 294.7 269.26 296.24C273.04 297.4 276.79 298.56 280.54 299.73C283.66 303.33 286.11 307.88 287.07 312.57C286.37 308.18 284.29 303.59 281.61 300.07C288.57 302.26 295.52 304.5 302.42 306.88C305.66 309.27 308.86 312.15 309.93 316.17C309.16 312.57 306.71 309.83 304.03 307.44V307.43Z" fill="#BDD0FB"/>
<path d="M241.06 312C259.28 284.96 279.62 259.08 300.55 234.1C321.3 209.34 343.29 183.65 370.44 165.7C342.86 183.11 320.28 208.38 298.97 232.75C277.44 257.36 256.48 282.89 237.63 309.63L241.06 312.01V312Z" fill="#D8E1FE"/>
<path d="M161.64 195.21C161.23 195.62 160.83 196.04 160.42 196.47C146.08 211.64 139.74 230.33 137.42 238.97C136.92 240.82 135.96 242.52 134.62 243.89L130.84 247.77L116.41 227.91L119.25 223.79C120.27 222.31 121.63 221.1 123.21 220.25C130.17 216.52 144.39 207.62 154.24 192.85C154.52 192.43 154.8 192.01 155.07 191.58C168.06 171.14 147.43 157.38 133.56 177.24C133.27 177.65 132.99 178.07 132.71 178.49C122.98 193.09 120.18 209.42 119.37 217.39C119.18 219.29 118.52 221.1 117.44 222.67L115.09 226.08L100.6 206.14L102.14 202.14C102.77 200.5 103.78 199.03 105.08 197.85C110.27 193.14 119.92 183.04 125.02 169.15C125.17 168.74 125.31 168.33 125.45 167.92C132.19 148.24 112.2 140.91 104.61 160.27C104.45 160.67 104.3 161.08 104.15 161.49C99.11 175.22 99.86 188.99 100.76 196.03C101 197.89 100.78 199.77 100.11 201.51L99.12 204.08L89.43 190.74C88.09 188.89 87.33 186.67 87.29 184.39C87.17 177.51 85.83 164.65 78.37 153.98C78.15 153.66 77.92 153.34 77.69 153.03C66.54 138.03 46.04 152.38 56.32 167.99C56.53 168.31 56.75 168.64 56.98 168.96C64.39 179.54 75.91 185.2 82.36 187.69C84.38 188.47 86.14 189.82 87.41 191.57L97.41 205.33L94.66 205.48C92.79 205.58 90.93 205.21 89.24 204.41C82.83 201.38 69.96 196.41 55.35 196.96C54.92 196.98 54.48 197 54.05 197.02C33.29 198.26 34.09 219.53 54.88 219.21C55.31 219.21 55.74 219.19 56.18 219.18C70.96 218.62 83.55 212.57 89.64 209.09C91.17 208.22 92.87 207.71 94.63 207.62L98.91 207.39L113.4 227.33L109.44 228.51C107.61 229.05 105.68 229.12 103.82 228.71C95.99 227.01 79.59 224.62 62.7 229.37C62.21 229.51 61.73 229.65 61.25 229.8C38.08 236.86 44.79 260.73 68.24 254.69C68.73 254.56 69.21 254.43 69.7 254.3C86.79 249.5 99.64 238.73 105.34 233.26C106.64 232.02 108.2 231.1 109.93 230.59L114.73 229.16L129.16 249.02L124.3 251.42C122.58 252.27 120.67 252.67 118.75 252.57C109.81 252.1 90.08 252.36 71.22 261.31C70.69 261.56 70.17 261.82 69.65 262.08C44.6 274.65 56.91 300.57 82.48 289.11C83.01 288.87 83.54 288.63 84.07 288.38C103.14 279.33 115.88 263.95 121.06 256.83C122.13 255.36 123.53 254.19 125.16 253.39L130.43 250.79L145.32 271.29L147.04 270.04L132.15 249.54L136.25 245.33C137.51 244.03 139.07 243.06 140.79 242.5C149.16 239.78 167.72 232.41 182.23 217.07C182.63 216.64 183.03 216.22 183.42 215.78C202.23 195 181.38 175.29 161.68 195.22L161.64 195.21Z" fill="#BDD0FB"/>
<path d="M394.6 274.85V355.62C394.6 359.07 393.11 362.17 390.74 364.3C388.67 366.16 385.93 367.29 382.93 367.29H239.1C236.09 367.29 233.36 366.15 231.3 364.3C228.93 362.17 227.44 359.07 227.44 355.62V274.85C227.44 271.43 228.9 268.38 231.23 266.26C231.31 266.18 231.4 266.09 231.49 266.02C233.54 264.25 236.19 263.18 239.1 263.18H382.93C385.84 263.18 388.5 264.24 390.53 266C390.62 266.07 390.71 266.16 390.79 266.24C393.14 268.37 394.6 271.44 394.6 274.86V274.85Z" fill="#FFA30D"/>
<g style="mix-blend-mode:multiply">
<path d="M231.29 364.3L311.02 296.79L390.74 364.3H231.29Z" fill="#FFEBEB"/>
</g>
<path d="M390.74 364.3C388.67 366.16 385.93 367.29 382.93 367.29H239.1C236.09 367.29 233.36 366.15 231.3 364.3L311.02 302.57L390.74 364.3Z" fill="#FFB20D"/>
<g style="mix-blend-mode:multiply">
<path d="M390.79 266.23L310.55 330.64L231.22 266.25C233.3 264.33 236.06 263.17 239.1 263.17H382.93C385.97 263.17 388.73 264.33 390.8 266.22L390.79 266.23Z" fill="#FFE6E6"/>
</g>
<path d="M390.53 265.99L310.55 321.36L231.48 266.01C233.53 264.24 236.18 263.17 239.09 263.17H382.92C385.83 263.17 388.49 264.23 390.52 265.99H390.53Z" fill="#FFB20D"/>
<path d="M28.42 267.95C16.14 271.87 9.47999 285.89 12.61 300.18L59.97 285.07C54.25 271.61 40.7 264.04 28.42 267.95Z" fill="#E6294D"/>
<path d="M164.44 267.95C152.16 264.03 138.61 271.61 132.89 285.07L180.25 300.18C183.38 285.89 176.72 271.87 164.44 267.95Z" fill="#E6294D"/>
<path d="M180.75 288.99C177.13 272.07 167.41 246.05 96.44 246.05C25.47 246.05 15.75 272.07 12.13 288.99L57.67 280.59C52.59 267.47 69.52 259.79 96.45 259.79C123.38 259.79 140.3 267.48 135.23 280.59L180.77 288.99H180.75Z" fill="#E6294D"/>
<path d="M96.43 259.79C123.36 259.79 140.28 267.48 135.21 280.59L172.69 287.5C169.73 265.99 136.72 249.05 96.43 249.05C56.14 249.05 23.14 266 20.17 287.5L57.65 280.59C52.57 267.47 69.5 259.79 96.43 259.79Z" fill="#B5203D"/>
<path d="M131.79 288.04C136.67 272.75 151.29 263.75 164.45 267.95C177.61 272.15 184.32 287.95 179.44 303.24C179.44 303.26 179.43 303.28 179.42 303.3C178.41 306.44 174.98 308.11 171.83 307.11L135.75 295.6C132.61 294.6 130.77 291.25 131.77 288.1C131.77 288.08 131.78 288.06 131.79 288.04Z" fill="#E6294D"/>
<path d="M61.08 288.04C56.2 272.75 41.58 263.75 28.42 267.95C15.26 272.15 8.55 287.95 13.43 303.24L13.45 303.3C14.45 306.42 17.79 308.15 20.91 307.15L57.11 295.6C60.25 294.6 62.09 291.25 61.09 288.1C61.09 288.08 61.08 288.06 61.07 288.04H61.08Z" fill="#E6294D"/>
<path d="M59.97 285.07L12.61 300.18C12.83 301.2 13.11 302.22 13.43 303.24C13.43 303.26 13.44 303.28 13.45 303.3C14.46 306.44 17.89 308.11 21.04 307.11L57.12 295.6C60.26 294.6 62.1 291.25 61.1 288.1C61.1 288.08 61.09 288.06 61.08 288.04C60.75 287.02 60.38 286.03 59.98 285.07H59.97Z" fill="#B5203D"/>
<path d="M132.89 285.07C132.48 286.03 132.11 287.02 131.79 288.04C131.79 288.06 131.78 288.08 131.77 288.1C130.77 291.25 132.61 294.6 135.75 295.6L171.83 307.11C174.97 308.11 178.41 306.44 179.42 303.3C179.42 303.28 179.43 303.26 179.44 303.24C179.77 302.22 180.04 301.2 180.26 300.18L132.9 285.07H132.89Z" fill="#B5203D"/>
<path d="M148.95 334.84C138.23 319.63 131.22 302.16 128.44 283.81C127.99 280.81 125.43 278.57 122.39 278.57H70.46C67.42 278.57 64.87 280.8 64.41 283.81C61.63 302.16 54.62 319.63 43.9 334.84L35.76 346.38H157.07L148.93 334.84H148.95Z" fill="#FF2E56"/>
<path d="M157.09 346.38H35.78V367.29H157.09V346.38Z" fill="#E6294D"/>
<path d="M96.43 294.8C112.46 294.8 125.46 305.36 125.46 318.4C125.46 331.44 112.46 342 96.43 342C80.4 342 67.4 331.43 67.4 318.4C67.4 305.37 80.39 294.8 96.43 294.8Z" fill="#CF2545"/>
<path d="M96.43 297.2C98.66 297.2 100.48 298.44 100.76 300.05C100.78 299.91 100.82 299.77 100.82 299.63C100.82 297.82 98.86 296.36 96.43 296.36C94 296.36 92.04 297.82 92.04 299.63C92.04 299.77 92.07 299.91 92.1 300.05C92.38 298.44 94.2 297.2 96.43 297.2Z" fill="#A9B2C7"/>
<path d="M73.9 309.37C74.5 307.99 76.23 307.11 78.08 307.11C78.53 307.11 78.99 307.16 79.44 307.27C81.11 307.67 82.22 308.75 82.43 309.97C82.71 308.44 81.49 306.93 79.44 306.43C78.99 306.32 78.53 306.27 78.08 306.27C76.23 306.27 74.51 307.15 73.9 308.53C73.69 309 73.65 309.48 73.73 309.95C73.76 309.76 73.81 309.56 73.9 309.37Z" fill="#A9B2C7"/>
<path d="M113.43 307.27C113.88 307.16 114.34 307.11 114.79 307.11C116.64 307.11 118.36 307.99 118.97 309.37C119.05 309.56 119.1 309.75 119.14 309.95C119.22 309.49 119.18 309.01 118.97 308.53C118.37 307.15 116.64 306.27 114.79 306.27C114.34 306.27 113.88 306.32 113.43 306.43C111.37 306.93 110.16 308.43 110.44 309.96C110.65 308.75 111.75 307.67 113.43 307.27Z" fill="#A9B2C7"/>
<path d="M110.61 318.23C111.2 316.85 112.93 315.97 114.79 315.97C115.24 315.97 115.7 316.02 116.15 316.13C117.82 316.53 118.93 317.61 119.14 318.83C119.42 317.3 118.2 315.79 116.15 315.29C115.7 315.18 115.24 315.13 114.79 315.13C112.94 315.13 111.21 316.01 110.61 317.39C110.4 317.86 110.36 318.34 110.44 318.81C110.48 318.62 110.53 318.42 110.61 318.23Z" fill="#A9B2C7"/>
<path d="M82.5 300.56C83.28 300.14 84.18 299.94 85.08 299.94C86.44 299.94 87.78 300.41 88.64 301.29C89.1 301.76 89.34 302.29 89.43 302.83C89.58 302.02 89.34 301.17 88.64 300.45C87.78 299.57 86.44 299.1 85.08 299.1C84.18 299.1 83.28 299.3 82.5 299.72C81.17 300.44 80.56 301.61 80.74 302.74C80.9 301.9 81.5 301.1 82.5 300.56Z" fill="#A9B2C7"/>
<path d="M104.22 301.29C105.08 300.41 106.42 299.94 107.78 299.94C108.68 299.94 109.58 300.14 110.36 300.56C111.36 301.1 111.96 301.9 112.12 302.74C112.3 301.61 111.69 300.44 110.36 299.72C109.58 299.3 108.68 299.1 107.78 299.1C106.42 299.1 105.08 299.57 104.22 300.45C103.52 301.16 103.28 302.02 103.43 302.83C103.51 302.29 103.76 301.76 104.22 301.29Z" fill="#A9B2C7"/>
<path d="M76.72 316.13C77.17 316.02 77.63 315.97 78.08 315.97C79.93 315.97 81.65 316.85 82.26 318.23C82.34 318.42 82.39 318.61 82.43 318.81C82.51 318.35 82.47 317.87 82.26 317.39C81.66 316.01 79.93 315.13 78.08 315.13C77.63 315.13 77.17 315.18 76.72 315.29C74.67 315.79 73.45 317.29 73.73 318.83C73.94 317.62 75.05 316.54 76.72 316.13Z" fill="#A9B2C7"/>
<path d="M81.54 324.5C82.4 323.62 83.74 323.15 85.09 323.15C85.98 323.15 86.89 323.35 87.66 323.77C88.66 324.31 89.26 325.11 89.42 325.95C89.6 324.82 88.99 323.65 87.66 322.93C86.88 322.51 85.98 322.31 85.09 322.31C83.73 322.31 82.4 322.78 81.54 323.66C80.83 324.37 80.59 325.23 80.74 326.04C80.83 325.5 81.07 324.97 81.54 324.5Z" fill="#A9B2C7"/>
<path d="M105.2 323.77C105.98 323.35 106.88 323.15 107.77 323.15C109.13 323.15 110.46 323.62 111.32 324.5C111.78 324.97 112.03 325.5 112.12 326.04C112.28 325.23 112.03 324.37 111.32 323.66C110.46 322.78 109.12 322.31 107.77 322.31C106.88 322.31 105.98 322.51 105.2 322.93C103.87 323.65 103.26 324.82 103.44 325.95C103.6 325.11 104.2 324.31 105.2 323.77Z" fill="#A9B2C7"/>
<path d="M96.43 325.89C98.66 325.89 100.48 327.13 100.76 328.73C100.78 328.59 100.82 328.45 100.82 328.31C100.82 326.51 98.86 325.05 96.43 325.05C94 325.05 92.04 326.51 92.04 328.31C92.04 328.45 92.07 328.59 92.1 328.73C92.38 327.13 94.2 325.89 96.43 325.89Z" fill="#A9B2C7"/>
<path d="M96.43 292.63C112.28 292.63 125.15 302.18 125.15 313.97C125.15 325.76 112.29 335.31 96.43 335.31C80.57 335.31 67.71 325.75 67.71 313.97C67.71 302.19 80.56 292.63 96.43 292.63ZM108.44 313.97C108.44 309.04 103.06 305.05 96.43 305.05C89.8 305.05 84.42 309.05 84.42 313.97C84.42 318.89 89.8 322.89 96.43 322.89C103.06 322.89 108.44 318.89 108.44 313.97ZM82.5 299.72C80.54 300.79 80.1 302.82 81.54 304.28C82.4 305.16 83.74 305.63 85.09 305.63C85.98 305.63 86.89 305.43 87.66 305.01C89.62 303.95 90.06 301.91 88.64 300.45C87.78 299.57 86.44 299.1 85.08 299.1C84.18 299.1 83.28 299.3 82.5 299.72ZM104.22 300.45C102.8 301.91 103.23 303.96 105.2 305.01C105.98 305.43 106.88 305.63 107.77 305.63C109.13 305.63 110.46 305.16 111.32 304.28C112.76 302.82 112.32 300.78 110.36 299.72C109.58 299.3 108.68 299.1 107.78 299.1C106.42 299.1 105.08 299.57 104.22 300.45ZM88.64 327.49C90.06 326.03 89.63 323.99 87.66 322.94C86.88 322.52 85.98 322.32 85.09 322.32C83.73 322.32 82.4 322.79 81.54 323.67C80.1 325.12 80.54 327.17 82.5 328.22C83.28 328.64 84.18 328.84 85.08 328.84C86.44 328.84 87.78 328.37 88.64 327.49ZM110.36 328.21C112.32 327.15 112.76 325.11 111.32 323.66C110.46 322.78 109.12 322.31 107.77 322.31C106.88 322.31 105.97 322.51 105.2 322.93C103.24 323.99 102.8 326.02 104.22 327.48C105.08 328.36 106.42 328.83 107.78 328.83C108.68 328.83 109.58 328.63 110.36 328.21ZM78.07 321.66C78.52 321.66 78.98 321.61 79.43 321.5C81.74 320.94 83 319.1 82.25 317.39C81.65 316.01 79.92 315.13 78.07 315.13C77.62 315.13 77.16 315.18 76.71 315.29C74.4 315.85 73.14 317.69 73.89 319.4C74.49 320.78 76.22 321.66 78.07 321.66ZM118.97 319.41C119.72 317.7 118.46 315.85 116.15 315.3C115.7 315.19 115.24 315.14 114.79 315.14C112.94 315.14 111.21 316.02 110.61 317.4C109.86 319.11 111.11 320.96 113.43 321.51C113.88 321.62 114.34 321.67 114.79 321.67C116.64 321.67 118.36 320.79 118.97 319.41ZM73.9 308.53C73.15 310.24 74.41 312.09 76.72 312.64C77.17 312.75 77.63 312.8 78.08 312.8C79.93 312.8 81.65 311.92 82.26 310.54C83.01 308.83 81.75 306.98 79.44 306.43C78.99 306.32 78.53 306.27 78.08 306.27C76.23 306.27 74.51 307.15 73.9 308.53ZM114.79 306.27C114.34 306.27 113.88 306.32 113.43 306.43C111.11 306.99 109.86 308.83 110.61 310.54C111.2 311.92 112.93 312.8 114.79 312.8C115.24 312.8 115.7 312.75 116.15 312.64C118.46 312.08 119.72 310.24 118.97 308.53C118.37 307.15 116.64 306.27 114.79 306.27ZM96.43 296.36C94.01 296.36 92.04 297.82 92.04 299.63C92.04 301.44 94 302.89 96.43 302.89C98.86 302.89 100.82 301.43 100.82 299.63C100.82 297.83 98.86 296.36 96.43 296.36ZM96.43 331.57C98.85 331.57 100.82 330.11 100.82 328.31C100.82 326.51 98.86 325.05 96.43 325.05C94 325.05 92.04 326.51 92.04 328.31C92.04 330.11 94 331.57 96.43 331.57Z" fill="#E8EEFE"/>
<path d="M96.43 305.05C103.06 305.05 108.44 309.05 108.44 313.97C108.44 318.89 103.06 322.89 96.43 322.89C89.8 322.89 84.42 318.89 84.42 313.97C84.42 309.05 89.8 305.05 96.43 305.05Z" fill="#FF2E56"/>
<path d="M86.11 314.85C86.11 309.92 91.49 305.93 98.12 305.93C100.34 305.93 102.41 306.39 104.2 307.17C102.11 305.85 99.4 305.05 96.44 305.05C89.81 305.05 84.43 309.05 84.43 313.97C84.43 317.25 86.82 320.1 90.36 321.65C87.76 320.01 86.11 317.57 86.11 314.85Z" fill="#CF2545"/>
<path d="M125.15 313.97V316.92C125.15 321.4 123.3 325.57 120.1 329C119.37 329.78 118.57 330.53 117.71 331.24C112.45 335.55 104.88 338.25 96.43 338.25C80.58 338.25 67.73 328.7 67.73 316.92V313.97C67.73 325.76 80.58 335.32 96.43 335.32C104.88 335.32 112.45 332.62 117.71 328.31C118.57 327.6 119.37 326.84 120.1 326.07C123.29 322.64 125.15 318.48 125.15 313.97Z" fill="#BCC4D6"/>
<path d="M113.61 323.14C113.73 323.14 113.86 323.16 113.99 323.2L120.1 326.05L117.7 328.3L112.86 324.17C112.45 323.7 112.95 323.14 113.6 323.14H113.61Z" fill="#414042"/>
<path d="M120.1 326.06V328.99C119.37 329.77 118.57 330.52 117.71 331.23V328.3L120.1 326.06Z" fill="#231F20"/>
<path d="M107.64 260.93V271.43C107.64 273.69 105.81 275.53 103.54 275.53H89.31C87.05 275.53 85.21 273.7 85.21 271.43V260.93C85.21 259.17 83.78 257.73 82.01 257.73H77.61C75.85 257.73 74.41 259.16 74.41 260.93V278.57H118.41V260.93C118.41 259.17 116.98 257.73 115.21 257.73H110.81C109.05 257.73 107.61 259.16 107.61 260.93H107.64Z" fill="#E6294D"/>
<path d="M118.43 276.73H74.43V278.57H118.43V276.73Z" fill="#B5203D"/>
<path d="M185.53 100.81C193.516 100.81 199.99 94.336 199.99 86.35C199.99 78.364 193.516 71.89 185.53 71.89C177.544 71.89 171.07 78.364 171.07 86.35C171.07 94.336 177.544 100.81 185.53 100.81Z" fill="#E8EEFE"/>
<path d="M158.93 96.37C159.15 96.95 159.38 97.51 159.64 98.07L153.64 108.85L163.03 118.24L173.81 112.24C174.37 112.49 174.93 112.73 175.51 112.95L178.89 124.81H192.17L195.55 112.95C196.12 112.73 196.69 112.5 197.25 112.24L208.03 118.24L217.42 108.85L211.42 98.07C211.67 97.51 211.91 96.95 212.13 96.37L223.99 92.99V79.71L212.13 76.33C211.91 75.76 211.68 75.19 211.42 74.63L217.42 63.85L208.03 54.46L197.25 60.46C196.69 60.21 196.13 59.97 195.55 59.75L192.17 47.89H178.89L175.51 59.75C174.93 59.97 174.37 60.2 173.81 60.46L163.03 54.46L153.64 63.85L159.64 74.63C159.39 75.19 159.15 75.75 158.93 76.33L147.07 79.71V92.99L158.93 96.37ZM164.64 86.35C164.64 74.81 173.99 65.46 185.53 65.46C197.07 65.46 206.42 74.81 206.42 86.35C206.42 97.89 197.07 107.24 185.53 107.24C173.99 107.24 164.64 97.89 164.64 86.35Z" fill="#E8EEFE"/>
<path d="M244.106 56.5338C244.811 52.1777 241.851 48.075 237.495 47.3703C233.139 46.6655 229.036 49.6255 228.331 53.9816C227.627 58.3378 230.587 62.4404 234.943 63.1452C239.299 63.8499 243.401 60.8899 244.106 56.5338Z" fill="#E8EEFE"/>
<path d="M221.55 60.8C221.67 61.12 221.8 61.43 221.94 61.74L218.63 67.69L223.82 72.88L229.77 69.57C230.08 69.71 230.39 69.84 230.71 69.96L232.58 76.51H239.92L241.79 69.96C242.11 69.84 242.42 69.71 242.73 69.57L248.68 72.88L253.87 67.69L250.56 61.74C250.7 61.43 250.83 61.12 250.95 60.8L257.5 58.93V51.59L250.95 49.72C250.83 49.4 250.7 49.09 250.56 48.78L253.87 42.83L248.68 37.64L242.73 40.95C242.42 40.81 242.11 40.68 241.79 40.56L239.92 34.01H232.58L230.71 40.56C230.39 40.68 230.08 40.81 229.77 40.95L223.82 37.64L218.63 42.83L221.94 48.78C221.8 49.09 221.67 49.4 221.55 49.72L215 51.59V58.93L221.55 60.8ZM224.7 55.26C224.7 48.89 229.87 43.72 236.24 43.72C242.61 43.72 247.78 48.89 247.78 55.26C247.78 61.63 242.61 66.8 236.24 66.8C229.87 66.8 224.7 61.63 224.7 55.26Z" fill="#E8EEFE"/>
<path d="M268.91 98.68H169.63C158.26 98.68 149.01 107.93 149.01 119.3V356.91C149.01 368.28 158.26 377.91 169.63 377.91H268.91C280.28 377.91 289.53 368.28 289.53 356.91V119.3C289.53 107.93 280.28 98.68 268.91 98.68ZM283.47 358.15C283.47 365.96 277.14 372.3 269.32 372.3H169.13C161.32 372.3 154.98 365.97 154.98 358.15V118.71C154.98 110.9 161.31 104.56 169.13 104.56H269.32C277.13 104.56 283.47 110.89 283.47 118.71V358.15Z" fill="#4A6B96"/>
<path d="M268.91 95.8H169.63C156.65 95.8 146.13 106.32 146.13 119.3V356.91C146.13 369.89 156.65 380.41 169.63 380.41H268.91C281.89 380.41 292.41 369.89 292.41 356.91V119.3C292.41 106.32 281.89 95.8 268.91 95.8ZM289.53 356.91C289.53 368.28 280.28 377.91 268.91 377.91H169.63C158.26 377.91 149.01 368.28 149.01 356.91V119.3C149.01 107.93 158.26 98.68 169.63 98.68H268.91C280.28 98.68 289.53 107.93 289.53 119.3V356.91Z" fill="#5C7EA8"/>
<path d="M269.32 104.57H169.14C161.325 104.57 154.99 110.905 154.99 118.72V358.15C154.99 365.965 161.325 372.3 169.14 372.3H269.32C277.135 372.3 283.47 365.965 283.47 358.15V118.72C283.47 110.905 277.135 104.57 269.32 104.57Z" fill="#E9EBF5"/>
<path d="M268.09 177.97H173.44V197.79H268.09V177.97Z" fill="#DBDCE6"/>
<path d="M268.09 206.99H173.44V226.81H268.09V206.99Z" fill="#DBDCE6"/>
<path d="M268.09 236.02H173.44V328.72H268.09V236.02Z" fill="#DBDCE6"/>
<path d="M266.59 176.47H171.94V196.29H266.59V176.47Z" fill="white"/>
<path d="M266.59 205.5H171.94V225.32H266.59V205.5Z" fill="white"/>
<path d="M266.59 234.52H171.94V327.22H266.59V234.52Z" fill="white"/>
<path d="M185.98 189.94H185.03L182.7 186.17H182.67L182.69 186.38C182.72 186.78 182.73 187.15 182.73 187.48V189.94H182.03V185.2H182.97L185.29 188.95H185.31C185.31 188.95 185.3 188.72 185.28 188.41C185.27 188.1 185.26 187.85 185.26 187.68V185.2H185.97V189.94H185.98Z" fill="#4A6B96"/>
<path d="M190.17 189.94L189.7 188.62H187.89L187.43 189.94H186.61L188.38 185.19H189.22L190.99 189.94H190.17ZM189.5 187.96L189.06 186.67C189.03 186.58 188.98 186.45 188.93 186.26C188.87 186.07 188.83 185.94 188.81 185.85C188.75 186.12 188.67 186.41 188.55 186.72L188.12 187.95H189.5V187.96Z" fill="#4A6B96"/>
<path d="M193.67 189.94L192.3 185.99H192.27C192.31 186.58 192.32 187.13 192.32 187.64V189.94H191.62V185.2H192.71L194.03 188.97H194.05L195.4 185.2H196.49V189.94H195.74V187.6C195.74 187.36 195.74 187.06 195.76 186.68C195.77 186.3 195.78 186.07 195.79 185.99H195.76L194.34 189.94H193.66H193.67Z" fill="#4A6B96"/>
<path d="M200.42 189.94H197.74V185.2H200.42V185.86H198.52V187.15H200.31V187.8H198.52V189.29H200.42V189.95V189.94Z" fill="#4A6B96"/>
<path d="M184.72 219.34H182.04V214.6H184.72V215.25H182.82V216.54H184.61V217.19H182.82V218.68H184.72V219.34Z" fill="#4A6B96"/>
<path d="M185.35 217.88V217.23H187.01V217.88H185.35Z" fill="#4A6B96"/>
<path d="M189.92 219.34L188.55 215.38H188.52C188.56 215.97 188.57 216.52 188.57 217.03V219.33H187.87V214.59H188.96L190.28 218.36H190.3L191.65 214.59H192.74V219.33H191.99V216.99C191.99 216.75 191.99 216.45 192.01 216.07C192.02 215.69 192.03 215.46 192.04 215.38H192.01L190.59 219.33H189.91L189.92 219.34Z" fill="#4A6B96"/>
<path d="M196.94 219.34L196.47 218.02H194.66L194.2 219.34H193.38L195.15 214.58H195.99L197.76 219.34H196.94ZM196.26 217.35L195.82 216.06C195.79 215.97 195.74 215.84 195.69 215.65C195.63 215.46 195.59 215.33 195.57 215.24C195.51 215.51 195.43 215.79 195.31 216.11L194.88 217.34H196.26V217.35Z" fill="#4A6B96"/>
<path d="M198.38 219.34V214.6H199.15V219.34H198.38Z" fill="#4A6B96"/>
<path d="M200.41 219.34V214.6H201.18V218.67H203.18V219.33H200.4L200.41 219.34Z" fill="#4A6B96"/>
<path d="M184.09 249.1L182.72 245.14H182.69C182.73 245.73 182.74 246.28 182.74 246.79V249.09H182.04V244.35H183.13L184.45 248.12H184.47L185.82 244.35H186.91V249.09H186.16V246.75C186.16 246.52 186.16 246.21 186.18 245.83C186.19 245.45 186.2 245.22 186.21 245.14H186.18L184.76 249.09H184.08L184.09 249.1Z" fill="#4A6B96"/>
<path d="M190.84 249.1H188.16V244.36H190.84V245.02H188.94V246.31H190.73V246.96H188.94V248.45H190.84V249.11V249.1Z" fill="#4A6B96"/>
<path d="M194.59 247.81C194.59 248.23 194.44 248.56 194.13 248.8C193.83 249.04 193.41 249.16 192.87 249.16C192.33 249.16 191.9 249.08 191.56 248.91V248.18C191.78 248.28 192.01 248.36 192.25 248.42C192.49 248.48 192.72 248.51 192.93 248.51C193.24 248.51 193.46 248.45 193.61 248.34C193.76 248.22 193.83 248.07 193.83 247.87C193.83 247.69 193.76 247.54 193.63 247.42C193.5 247.3 193.22 247.15 192.8 246.98C192.37 246.8 192.06 246.6 191.89 246.38C191.71 246.16 191.62 245.89 191.62 245.57C191.62 245.18 191.76 244.87 192.04 244.64C192.32 244.41 192.7 244.3 193.17 244.3C193.64 244.3 194.08 244.4 194.52 244.6L194.27 245.23C193.85 245.05 193.47 244.96 193.14 244.96C192.89 244.96 192.7 245.01 192.57 245.12C192.44 245.23 192.38 245.37 192.38 245.55C192.38 245.67 192.41 245.78 192.46 245.87C192.51 245.96 192.6 246.04 192.72 246.12C192.84 246.2 193.05 246.3 193.36 246.43C193.71 246.57 193.96 246.71 194.12 246.83C194.28 246.95 194.4 247.1 194.48 247.26C194.56 247.42 194.59 247.6 194.59 247.82V247.81Z" fill="#4A6B96"/>
<path d="M198.24 247.81C198.24 248.23 198.09 248.56 197.78 248.8C197.48 249.04 197.06 249.16 196.52 249.16C195.98 249.16 195.55 249.08 195.21 248.91V248.18C195.43 248.28 195.66 248.36 195.9 248.42C196.14 248.48 196.37 248.51 196.58 248.51C196.89 248.51 197.11 248.45 197.26 248.34C197.41 248.22 197.48 248.07 197.48 247.87C197.48 247.69 197.41 247.54 197.28 247.42C197.15 247.3 196.87 247.15 196.45 246.98C196.02 246.8 195.71 246.6 195.54 246.38C195.36 246.16 195.27 245.89 195.27 245.57C195.27 245.18 195.41 244.87 195.69 244.64C195.97 244.41 196.35 244.3 196.82 244.3C197.29 244.3 197.73 244.4 198.17 244.6L197.92 245.23C197.5 245.05 197.12 244.96 196.79 244.96C196.54 244.96 196.35 245.01 196.22 245.12C196.09 245.23 196.03 245.37 196.03 245.55C196.03 245.67 196.06 245.78 196.11 245.87C196.16 245.96 196.25 246.04 196.37 246.12C196.49 246.2 196.7 246.3 197.01 246.43C197.36 246.57 197.61 246.71 197.77 246.83C197.93 246.95 198.05 247.1 198.13 247.26C198.21 247.42 198.24 247.6 198.24 247.82V247.81Z" fill="#4A6B96"/>
<path d="M202.1 249.1L201.63 247.79H199.82L199.36 249.1H198.54L200.31 244.35H201.15L202.92 249.1H202.1ZM201.42 247.12L200.98 245.83C200.95 245.74 200.9 245.61 200.85 245.42C200.79 245.23 200.75 245.1 200.73 245.01C200.67 245.28 200.59 245.57 200.47 245.88L200.04 247.11H201.42V247.12Z" fill="#4A6B96"/>
<path d="M205.48 246.53H207.22V248.91C206.93 249 206.66 249.07 206.4 249.11C206.14 249.15 205.86 249.17 205.55 249.17C204.83 249.17 204.28 248.96 203.89 248.54C203.5 248.11 203.31 247.52 203.31 246.74C203.31 245.96 203.53 245.38 203.97 244.95C204.41 244.52 205.01 244.3 205.78 244.3C206.27 244.3 206.74 244.39 207.19 244.59L206.92 245.23C206.54 245.05 206.15 244.96 205.77 244.96C205.27 244.96 204.86 245.12 204.57 245.43C204.28 245.75 204.13 246.18 204.13 246.73C204.13 247.31 204.26 247.75 204.53 248.05C204.79 248.35 205.18 248.5 205.67 248.5C205.92 248.5 206.19 248.47 206.47 248.41V247.19H205.49V246.53H205.48Z" fill="#4A6B96"/>
<path d="M211.04 249.1H208.36V244.36H211.04V245.02H209.14V246.31H210.93V246.96H209.14V248.45H211.04V249.11V249.1Z" fill="#4A6B96"/>
<path d="M148.07 388.57H126.08C123.99 388.57 122.18 387.11 121.74 385.07L111.1 346.45H163.05L152.41 385.07C151.97 387.11 150.16 388.57 148.07 388.57Z" fill="#4042E2"/>
<path d="M159.46 346.45C152.23 371.51 132.59 385.36 122.12 386.11C122.86 387.59 124.37 388.57 126.08 388.57H148.07C150.16 388.57 151.97 387.11 152.41 385.07L163.05 346.45H159.46Z" fill="#3839C4"/>
<path d="M122.23 275.46C126.01 274.34 130.19 276.37 133.98 275.29C137.98 274.15 140.2 270.04 143.03 266.99C144.76 265.12 147.59 263.51 149.73 264.89C151.69 266.15 151.65 269.12 150.6 271.2C149.55 273.28 147.78 274.93 146.8 277.04C145.61 279.58 145.7 282.67 147.02 285.14C148.33 287.58 150.3 289.17 150.98 291.9C151.64 294.55 151.9 297.05 150.07 299.36C149.11 300.57 147.7 301.62 147.59 303.15C147.49 304.62 148.65 305.88 148.9 307.33C149.27 309.49 147.59 311.43 145.9 312.83C144.21 314.23 142.26 315.64 141.77 317.78C141.33 319.69 142.19 321.63 142.74 323.51C143.54 326.28 143.62 329.23 143.04 332.05C142.75 333.46 142.29 334.83 141.68 336.13C141.26 337.03 140.97 338.45 140.36 339.18C137.84 338.4 135.3 337.82 132.74 337.17C130.18 336.52 127.6 335.6 125.65 333.81C123.7 332.02 122.51 329.22 123.26 326.68C124.01 324.14 126.54 322.26 126.77 319.62C127 317 124.83 314.75 122.51 313.5C120.19 312.25 117.55 311.58 115.45 309.99C113.35 308.4 111.95 305.35 113.34 303.11C114.51 301.23 117.07 300.75 118.61 299.15C120.74 296.94 120.31 293.33 119.26 290.44C118.21 287.55 116.67 284.65 117.03 281.6C117.37 278.78 119.5 276.26 122.23 275.45V275.46Z" fill="url(#paint0_linear_16_101)"/>
<path d="M168.17 313.76C167.19 313.49 166.14 313.3 165.15 313.52C164.16 313.74 163.2 314.42 162.92 315.4C162.55 316.68 163.35 317.98 163.55 319.3C163.94 321.89 161.44 324.5 158.83 324.22C157.51 324.08 156.27 323.33 154.95 323.41C152.86 323.53 151.42 325.69 151.14 327.76C150.86 329.83 151.37 331.92 151.43 334.01C151.48 336.1 150.91 338.44 149.12 339.53C147.31 340.63 144.99 340.05 142.88 340.31C139.68 340.7 136.87 343.31 136.25 346.47C130.3 338.69 129.66 327.23 134.72 318.84C134.93 320.66 137.18 321.74 138.91 321.15C140.64 320.57 141.75 318.78 142.04 316.97C142.33 315.16 141.95 313.32 141.52 311.54C141.27 310.48 141 309.37 141.25 308.3C141.49 307.23 142.43 306.24 143.51 306.32C144.73 306.41 145.59 307.75 146.82 307.81C147.74 307.85 148.56 307.1 148.88 306.24C149.2 305.37 149.13 304.42 149.02 303.5C148.57 299.75 147.51 296.06 145.9 292.65C145.59 291.99 145.25 291.32 145.2 290.6C145.15 289.87 145.45 289.07 146.12 288.77C147.18 288.29 148.31 289.34 148.87 290.36C149.43 291.38 149.98 292.63 151.12 292.89C152.25 293.16 153.37 292.22 153.76 291.12C154.15 290.03 154.01 288.83 153.93 287.67C153.72 284.65 153.98 281.6 154.68 278.66C154.97 277.43 155.53 276.04 156.76 275.73C158.1 275.4 159.31 276.6 160.04 277.78C161.14 279.55 161.91 281.52 162.29 283.57C162.54 284.93 162.76 286.53 163.96 287.21C165.49 288.07 167.31 286.79 168.61 285.6C169.91 284.42 171.81 283.2 173.28 284.17C174.69 285.1 174.39 287.3 173.52 288.75C172.65 290.2 171.35 291.51 171.18 293.19C171.12 293.75 171.22 294.36 171.61 294.77C172.2 295.38 173.21 295.3 173.99 294.97C174.77 294.64 175.47 294.1 176.3 293.91C177.92 293.53 179.65 294.68 180.21 296.24C180.77 297.8 180.27 299.61 179.23 300.91C178.19 302.2 176.67 303.03 175.09 303.55C173.82 303.96 172.26 304.42 171.95 305.72C171.65 306.96 172.75 308.08 173.82 308.78C174.89 309.48 176.15 310.18 176.46 311.42C176.88 313.13 175.07 314.7 173.31 314.85C171.55 315 169.86 314.24 168.16 313.76H168.17Z" fill="url(#paint1_linear_16_101)"/>
<path d="M135.65 346.49C135.19 342.49 132.47 339.01 129.12 336.77C125.77 334.53 121.83 333.37 117.91 332.41C114 331.45 110.01 330.65 106.32 329.04C105.31 328.6 104.31 328.08 103.59 327.25C102.87 326.42 102.48 325.22 102.88 324.2C103.74 321.99 107.27 322.1 108.42 320.04C109.14 318.76 108.62 317.09 107.62 316.01C106.63 314.94 105.25 314.32 103.94 313.66C100.46 311.92 97.18 309.75 94.21 307.23C93.28 306.44 92.35 305.58 91.85 304.46C91.34 303.35 91.36 301.91 92.18 301.01C92.97 300.15 94.27 299.98 95.44 299.98C97.66 299.98 99.88 300.39 101.96 301.17C103.36 301.7 104.88 302.41 106.29 301.89C107.81 301.33 108.52 299.53 108.56 297.91C108.6 296.29 108.17 294.68 108.26 293.05C108.35 291.35 109.32 289.45 111.01 289.23C112.91 288.98 114.32 290.91 115.18 292.63C115.7 293.68 116.2 294.76 116.97 295.65C117.74 296.53 118.85 297.21 120.02 297.16C122.33 297.06 123.66 294.42 125.8 293.52C127.31 292.88 129.11 293.21 130.46 294.12C131.82 295.03 132.76 296.46 133.37 297.98C135 302.09 134.28 306.7 133.93 311.11C133.58 315.52 133.81 320.42 136.81 323.67C138.11 325.07 139.89 326.13 140.6 327.9C141.16 329.29 140.94 330.87 140.65 332.34C139.67 337.26 137.98 342.04 135.65 346.48V346.49Z" fill="url(#paint2_linear_16_101)"/>
<path d="M109.74 340.91H164.41C165.38 340.91 166.17 341.7 166.17 342.67V344.69C166.17 345.66 165.38 346.45 164.41 346.45H109.74C108.77 346.45 107.98 345.66 107.98 344.69V342.67C107.98 341.7 108.77 340.91 109.74 340.91Z" fill="#3839C4"/>
<path d="M21.24 142.9C32.9705 142.9 42.48 133.391 42.48 121.66C42.48 109.929 32.9705 100.42 21.24 100.42C9.50947 100.42 0 109.929 0 121.66C0 133.391 9.50947 142.9 21.24 142.9Z" fill="#E5EBFE"/>
<path d="M21.72 123.14L7.51001 118.44C7.70001 118.16 7.98001 117.94 8.33001 117.83L29.38 110.94C29.72 110.83 30.08 110.84 30.4 110.94L21.72 123.13V123.14ZM24.24 121.72L33.61 123.87C33.94 123.95 34.15 124.28 34.07 124.61C34.02 124.83 33.86 124.99 33.66 125.06C33.56 125.09 33.45 125.1 33.33 125.07L23.46 122.8L22.45 124.22C22.37 124.33 22.26 124.41 22.14 124.45C22.02 124.49 21.88 124.49 21.76 124.45L20.1 123.9L13.48 131.56C13.4 131.65 13.31 131.71 13.21 131.74C13.01 131.8 12.78 131.77 12.62 131.62C12.36 131.4 12.34 131.01 12.56 130.75L18.85 123.48L7.23001 119.64C7.24001 119.72 7.26001 119.81 7.29001 119.9L11.03 131.33C11.31 132.19 12.24 132.66 13.1 132.38L34.15 125.49C35.01 125.21 35.48 124.28 35.2 123.42L31.46 111.99C31.43 111.91 31.39 111.83 31.35 111.75L24.25 121.72H24.24Z" fill="white"/>
<path d="M244.22 6.95L199.81 0L195.65 8.37L244.22 6.95Z" fill="#EFF3FE"/>
<path d="M195.65 8.37L198.96 26.19L244.22 6.95" fill="#BDD0FB"/>
<path d="M244.22 6.95L194.31 23.74L195.77 12.49L244.22 6.95Z" fill="#EFF3FE"/>
<path d="M158.24 27.49C158.16 37.76 149.77 46.01 139.5 45.93C129.23 45.85 120.98 37.46 121.06 27.19C121.14 16.92 129.53 8.67 139.8 8.75C150.07 8.83 158.32 17.22 158.24 27.49Z" fill="#E5EBFE"/>
<path d="M146.04 19.19L133.38 19.09C131.01 19.07 129.06 20.99 129.04 23.36L128.99 29.2C128.97 31.57 130.89 33.52 133.26 33.54H134.56L134.52 38.87L139.88 33.6L145.92 33.65C148.29 33.67 150.24 31.75 150.26 29.38L150.31 23.54C150.33 21.17 148.41 19.22 146.04 19.2V19.19ZM132.34 26.3C132.34 25.52 132.99 24.89 133.77 24.89C134.55 24.89 135.18 25.54 135.18 26.32C135.18 27.1 134.53 27.73 133.75 27.73C132.97 27.73 132.34 27.08 132.34 26.3ZM139.64 27.78C138.86 27.78 138.23 27.13 138.23 26.35C138.23 25.57 138.88 24.94 139.66 24.94C140.44 24.94 141.07 25.59 141.07 26.37C141.07 27.15 140.42 27.78 139.64 27.78ZM145.53 27.83C144.75 27.83 144.12 27.18 144.12 26.4C144.12 25.62 144.77 24.99 145.55 24.99C146.33 24.99 146.96 25.64 146.96 26.42C146.96 27.2 146.31 27.84 145.53 27.83Z" fill="white"/>
<path d="M31.8388 165.937C32.7849 161.916 30.292 157.889 26.2708 156.943C22.2495 155.997 18.2226 158.49 17.2764 162.511C16.3303 166.532 18.8232 170.559 22.8445 171.505C26.8657 172.451 30.8926 169.958 31.8388 165.937Z" fill="#E5EBFE"/>
<path d="M361.01 146.9C364.263 146.9 366.9 144.263 366.9 141.01C366.9 137.757 364.263 135.12 361.01 135.12C357.757 135.12 355.12 137.757 355.12 141.01C355.12 144.263 357.757 146.9 361.01 146.9Z" fill="#E5EBFE"/>
<path d="M315.41 182.12C317.835 182.12 319.8 180.155 319.8 177.73C319.8 175.305 317.835 173.34 315.41 173.34C312.986 173.34 311.02 175.305 311.02 177.73C311.02 180.155 312.986 182.12 315.41 182.12Z" fill="#BDD0FB"/>
<path d="M378.519 119.091C385.148 110.828 383.824 98.7565 375.561 92.1277C367.299 85.4988 355.227 86.823 348.599 95.0854C341.97 103.348 343.294 115.419 351.556 122.048C359.819 128.677 371.89 127.353 378.519 119.091Z" fill="#E5EBFE"/>
<path d="M372.8 108.94C372.24 110.74 371.06 112.69 369.17 113.32C367.56 113.86 365.28 113.12 365.09 111.2L364.91 111.15C363.21 112.24 360.9 111.91 359.48 110.48C358.01 109 358.18 106.72 359.06 104.98C361.15 100.82 366.25 102.1 369.3 104.34L367.38 109.6C367.08 110.57 367.38 112.04 368.68 111.18C369.82 110.42 370.4 108.55 370.64 107.3C371.28 103.95 369.27 101.24 366.07 100.36C363.09 99.54 360.08 100.36 358.24 102.92C356.66 105.13 355.71 108.58 357.2 111.06C359.04 114.15 363.59 114.69 366.82 114.53L366.16 116.63C360.12 117.23 352.89 113.45 354.07 106.54C354.64 103.2 356.67 100.05 359.82 98.65C362.91 97.27 366.72 97.73 369.55 99.53C372.79 101.59 373.93 105.32 372.8 108.93V108.94ZM361.19 106.81C360.82 107.98 360.94 109.19 362.23 109.66C363.93 110.28 364.86 108.79 365.39 107.42L366.29 105.05C364.17 103.85 361.96 104.37 361.19 106.81Z" fill="white"/>
<path d="M319.28 301.17L320 303.06L321.59 307.62L325.12 307.46L326.22 306.29L325.04 302.82L324.46 299.63L319.28 301.17Z" fill="#FDB9CD"/>
<path d="M345.27 299.74L345.02 301.75L344.31 306.52L347.5 308.03L349.03 307.5L349.6 303.88L350.56 300.78L345.27 299.74Z" fill="#FDB9CD"/>
<path d="M325.04 302.82C324.4 304.26 321.39 303.89 320.1 302.58C318.18 302.79 317.45 304.64 317.45 304.64C317.45 304.64 315.19 309.75 314.56 311.57C313.73 312.82 313.1 313.75 312.48 314.21C311.86 314.67 311.61 315.27 311.68 315.69C311.75 316.11 311.97 317.23 313.37 317.01C314.77 316.79 319.68 315.7 320.5 315.22C321.33 314.74 321.65 314.52 323.03 312.66C324.41 310.81 325.92 310.2 326.34 309.83C326.76 309.46 327.84 308.85 327.84 308.34C327.84 307.67 326.95 305.31 326.41 304.6C325.87 303.89 325.04 302.83 325.04 302.83V302.82Z" fill="#231F20"/>
<path d="M357.68 257.03L344.24 243.34L327.3 243.08L312.24 255.77C308.43 258.02 306.05 264.41 307.48 268.61L310 276.81C310.91 279.78 311.95 282.71 313.11 285.59L318.71 302.53L326.08 301.74L324.42 285.27C323.94 280.5 322.97 275.71 320.77 271.45C320.28 270.5 322.08 267.02 324.55 266.14C329.78 264.27 333.54 263.32 333.54 263.32C333.54 263.32 340.23 265.53 345.5 267.44C347.89 268.31 349.64 271.77 349.15 272.72C346.95 276.98 345.99 281.76 345.51 286.53L343.85 303.01L350.87 303.8L356.83 286.86C357.99 283.98 359.03 281.05 359.94 278.08L362.46 269.88C363.89 265.69 361.51 259.29 357.7 257.04L357.68 257.03Z" fill="#4A6B96"/>
<path d="M343.33 305.87C343.33 305.87 342.49 311.13 342.73 311.49C342.97 311.85 345.22 313.38 345.37 313.74C345.52 314.1 345.7 315.8 346.84 316.09C347.98 316.38 354.62 316.4 355.04 316.09C355.46 315.78 355.76 314.7 355.37 313.95C354.98 313.2 353.39 311.92 352.37 309.89C351.35 307.86 350.84 305.61 350.39 305.01C349.94 304.41 347.84 303.33 346.49 304.26C345.14 305.19 344.54 305.7 344.18 305.82C343.82 305.94 343.34 305.88 343.34 305.88L343.33 305.87Z" fill="#231F20"/>
<path d="M311.86 216.67C311.22 222.78 311.5 232.38 311.5 238.02C311.5 240.63 315.21 244.03 316.4 247.21C316.78 248.22 317.48 249.08 318.41 249.64L327.37 258.65L328.92 258.7L319.52 241.59C319.61 237.74 320.94 221.43 320.94 221.43V205.19C315.49 207.33 312.46 210.8 311.85 216.67H311.86Z" fill="#05C0DE"/>
<path d="M359.75 216.67C360.39 222.78 360.11 232.38 360.11 238.02C360.11 240.63 356.4 244.03 355.21 247.21C354.83 248.22 354.13 249.08 353.2 249.64L344.24 258.65L342.69 258.7L352.09 241.59C352 237.74 350.67 221.43 350.67 221.43V205.19C356.12 207.33 359.15 210.8 359.76 216.67H359.75Z" fill="#05C0DE"/>
<path d="M350.69 221.43V205.19C350.46 205.1 350.22 205.01 349.99 204.93C346.62 203.79 342.4 202.8 337.41 202.42C336.87 202.46 336.34 202.51 335.82 202.56C335.3 202.51 334.78 202.46 334.23 202.42C329.23 202.8 325.02 203.79 321.65 204.93C321.41 205.01 321.18 205.1 320.95 205.19V221.43C322.04 228.74 319.61 245.82 317.83 259.15H353.81C352.03 245.82 349.6 228.74 350.69 221.43Z" fill="#05D7DE"/>
<path d="M353.76 258.25H317.86L314.71 236.91C314.71 235.76 315.65 234.82 316.8 234.82H354.82C355.97 234.82 356.91 235.76 356.91 236.91L353.76 258.25Z" fill="#E4E7F5"/>
<path d="M353.74 258.25H317.9V259.15H353.74V258.25Z" fill="#CBCEDB"/>
<path d="M343.92 203.31C341.92 202.91 339.75 202.59 337.41 202.42C336.87 202.46 336.34 202.51 335.82 202.56C335.3 202.51 334.78 202.46 334.23 202.42C331.91 202.6 329.76 202.91 327.78 203.3L330.33 204.97L330.37 205C331.92 205.91 333.69 206.39 335.49 206.39C337.28 206.39 339.05 205.91 340.59 205L343.91 203.3L343.92 203.31Z" fill="#05C0DE"/>
<path d="M330.64 205.22C332.1 206.08 333.76 206.53 335.45 206.53C337.13 206.53 338.79 206.08 340.24 205.23L342.24 204.2C340.97 203.14 341.06 199.68 341.06 199.68L335.5 198.97L329.27 199.7L329.55 202.39C329.62 203.02 329.37 203.64 328.91 204.09L330.59 205.19L330.63 205.21L330.64 205.22Z" fill="#ED9DB4"/>
<path d="M343.53 193.53C343.53 192.09 343.14 190.91 342.63 190.67V188.95C342.63 186.25 340.42 184.03 337.71 184.03H332.49C329.79 184.03 327.57 186.24 327.57 188.95V190.63C326.97 190.63 326.48 191.93 326.48 193.54C326.48 195.15 326.97 196.45 327.57 196.45C327.59 196.45 327.62 196.45 327.64 196.45C327.8 197.59 328.23 198.67 328.91 199.61L330.97 202.44C331.87 203.65 333.3 204.44 334.91 204.44H335.28C336.89 204.44 338.32 203.65 339.22 202.44L341.28 199.61C341.96 198.67 342.39 197.58 342.55 196.45C343.1 196.3 343.52 195.06 343.52 193.56L343.53 193.53Z" fill="#FDB9CD"/>
<path d="M327.57 196.43C327.68 196.21 327.22 195.19 327.16 194.96C326.92 194.05 326.67 193.21 326.37 192.32C325.91 190.93 325.79 189.5 325.5 188.08C325.12 186.23 324.94 183.71 325.35 181.85C325.89 179.36 328.2 175.59 329.47 175.59C329.81 177.53 330.58 178.02 331.75 178.35C334.42 179.1 339.27 178.57 340.38 181.59C342.69 180.62 345.68 186.16 343.52 192.67C343.21 193.6 343.15 195.48 342.55 196.4C342.84 193.62 341.58 190.9 341.58 190.9C341.58 190.9 342.25 185.8 337.85 185.2C333.45 184.6 328.74 184.27 328.15 190.34C328.31 194.88 327.57 196.41 327.57 196.41V196.43Z" fill="#1D117F"/>
<path d="M343.9 203.32L340.6 205.01C339.05 205.92 337.29 206.4 335.5 206.4C333.7 206.4 331.93 205.92 330.38 205.01L330.34 204.98L327.8 203.31C327.38 203.39 326.96 203.48 326.56 203.57C329.16 205.82 332.43 207.82 335.01 207.84C337.72 207.82 342.42 205.95 345.15 203.58C344.75 203.49 344.32 203.4 343.9 203.32Z" fill="#05A8DE"/>
<path d="M173.868 140.99L169.612 145.834C170.181 146.515 170.835 147.276 171.572 148.116C172.319 148.956 172.799 149.474 173.014 149.67C173.238 149.866 173.411 150.015 173.532 150.118C173.663 150.211 173.859 150.319 174.12 150.44C174.381 150.552 174.661 150.627 174.96 150.664L174.946 151.112C174.386 151.103 173.924 151.019 173.56 150.86C173.196 150.692 172.879 150.477 172.608 150.216C172.337 149.945 171.745 149.292 170.83 148.256C169.925 147.211 169.243 146.413 168.786 145.862L173.084 140.99H173.868ZM168.52 140.99V151H167.848V140.99H168.52ZM176.81 147.85L175.508 151H174.85L178.658 141.858H179.036L182.872 151H182.158L180.842 147.85H176.81ZM178.812 142.894C178.672 143.314 178.546 143.664 178.434 143.944L177.034 147.304H180.618L179.232 143.958C179.017 143.435 178.877 143.081 178.812 142.894ZM184.715 151V141.956C185.518 141.891 186.199 141.858 186.759 141.858C187.618 141.858 188.327 142.082 188.887 142.53C189.447 142.969 189.727 143.599 189.727 144.42C189.727 144.971 189.568 145.479 189.251 145.946C188.934 146.413 188.574 146.791 188.173 147.08C189.284 148.555 189.97 149.437 190.231 149.726C190.763 150.277 191.342 150.589 191.967 150.664L191.953 151.098C191.43 151.089 191.006 151.014 190.679 150.874C190.352 150.725 190.026 150.477 189.699 150.132C189.382 149.787 188.677 148.858 187.585 147.346C186.829 147.346 186.087 147.323 185.359 147.276V151H184.715ZM187.235 146.814C187.599 146.814 187.991 146.571 188.411 146.086C188.831 145.601 189.041 145.036 189.041 144.392C189.041 143.748 188.822 143.258 188.383 142.922C187.944 142.586 187.375 142.418 186.675 142.418C186.302 142.418 185.863 142.437 185.359 142.474V146.744C186.031 146.791 186.656 146.814 187.235 146.814ZM193.233 151V141.914H193.877V151H193.233ZM197.239 151V141.914H201.481V142.474H197.883V145.778H201.131V146.324H197.883V150.412H201.621V151H197.239ZM208.412 150.524H208.034L205.388 144.098C205.276 143.846 205.164 143.552 205.052 143.216C205.052 143.225 205.042 143.277 205.024 143.37C205.014 143.463 205 143.589 204.982 143.748C204.963 143.897 204.944 144.023 204.926 144.126L203.876 151H203.246L204.73 141.858H205.108L207.936 148.564C208.16 149.124 208.272 149.418 208.272 149.446C208.337 149.25 208.463 148.961 208.65 148.578L211.8 141.858H212.178L213.564 151H212.892L211.898 144.098C211.832 143.641 211.8 143.337 211.8 143.188L211.394 144.112L208.412 150.524ZM225.48 141.438C224.257 141.438 223.259 141.877 222.484 142.754C221.709 143.631 221.322 144.709 221.322 145.988C221.322 147.257 221.761 148.335 222.638 149.222C223.515 150.109 224.584 150.552 225.844 150.552C226.927 150.552 227.827 150.403 228.546 150.104V145.988H229.218V150.412C228.406 150.916 227.267 151.168 225.802 151.168C224.346 151.168 223.114 150.669 222.106 149.67C221.098 148.662 220.594 147.435 220.594 145.988C220.594 144.532 221.051 143.309 221.966 142.32C222.881 141.321 224.052 140.822 225.48 140.822C226.6 140.822 227.734 141.009 228.882 141.382L228.7 141.942C227.58 141.606 226.507 141.438 225.48 141.438ZM232.526 151V141.914H236.768V142.474H233.17V145.778H236.418V146.324H233.17V150.412H236.908V151H232.526ZM239.485 151V141.956C240.287 141.891 240.969 141.858 241.529 141.858C242.387 141.858 243.097 142.082 243.657 142.53C244.217 142.969 244.497 143.599 244.497 144.42C244.497 144.971 244.338 145.479 244.021 145.946C243.703 146.413 243.344 146.791 242.943 147.08C244.053 148.555 244.739 149.437 245.001 149.726C245.533 150.277 246.111 150.589 246.737 150.664L246.723 151.098C246.2 151.089 245.775 151.014 245.449 150.874C245.122 150.725 244.795 150.477 244.469 150.132C244.151 149.787 243.447 148.858 242.355 147.346C241.599 147.346 240.857 147.323 240.129 147.276V151H239.485ZM242.005 146.814C242.369 146.814 242.761 146.571 243.181 146.086C243.601 145.601 243.811 145.036 243.811 144.392C243.811 143.748 243.591 143.258 243.153 142.922C242.714 142.586 242.145 142.418 241.445 142.418C241.071 142.418 240.633 142.437 240.129 142.474V146.744C240.801 146.791 241.426 146.814 242.005 146.814ZM251.454 142.348C250.418 142.348 249.546 142.745 248.836 143.538C248.136 144.322 247.786 145.288 247.786 146.436C247.786 147.584 248.183 148.559 248.976 149.362C249.77 150.155 250.703 150.552 251.776 150.552C252.859 150.552 253.699 150.426 254.296 150.174V146.436H254.94V150.468C254.212 150.916 253.181 151.14 251.846 151.14C250.512 151.14 249.387 150.687 248.472 149.782C247.558 148.877 247.1 147.766 247.1 146.45C247.1 145.125 247.511 144.014 248.332 143.118C249.163 142.222 250.232 141.774 251.538 141.774C252.593 141.774 253.624 141.937 254.632 142.264L254.464 142.796C253.494 142.497 252.49 142.348 251.454 142.348ZM257.996 151V141.914H262.238V142.474H258.64V145.778H261.888V146.324H258.64V150.412H262.378V151H257.996ZM266.789 142.306C266.285 142.306 265.875 142.427 265.557 142.67C265.24 142.913 265.081 143.253 265.081 143.692C265.081 144.196 265.291 144.649 265.711 145.05C266.01 145.339 266.393 145.647 266.859 145.974C267.335 146.291 267.662 146.52 267.839 146.66C268.017 146.8 268.231 146.991 268.483 147.234C268.941 147.691 269.169 148.219 269.169 148.816C269.169 149.591 268.908 150.179 268.385 150.58C267.872 150.972 267.149 151.168 266.215 151.168C265.291 151.168 264.517 150.925 263.891 150.44L264.227 149.95C264.862 150.379 265.534 150.594 266.243 150.594C266.953 150.594 267.503 150.445 267.895 150.146C268.297 149.847 268.497 149.427 268.497 148.886C268.497 148.419 268.297 147.99 267.895 147.598C267.615 147.318 267.237 147.015 266.761 146.688C266.295 146.361 265.968 146.128 265.781 145.988C265.595 145.839 265.375 145.643 265.123 145.4C264.647 144.924 264.409 144.373 264.409 143.748C264.409 143.123 264.629 142.633 265.067 142.278C265.515 141.923 266.131 141.746 266.915 141.746C267.699 141.746 268.404 141.9 269.029 142.208L268.791 142.726C268.213 142.446 267.545 142.306 266.789 142.306Z" fill="black"/>
</g>
<defs>
<linearGradient id="paint0_linear_16_101" x1="134.12" y1="346.11" x2="131.291" y2="264.7" gradientUnits="userSpaceOnUse">
<stop offset="0.23" stop-color="#05AAB0"/>
<stop offset="0.35" stop-color="#05B9BF"/>
<stop offset="0.54" stop-color="#05C9D0"/>
<stop offset="0.75" stop-color="#05D3DA"/>
<stop offset="1" stop-color="#05D7DE"/>
</linearGradient>
<linearGradient id="paint1_linear_16_101" x1="125.571" y1="320.642" x2="179.548" y2="296.013" gradientUnits="userSpaceOnUse">
<stop stop-color="#056EAB"/>
<stop offset="0.09" stop-color="#057EB9"/>
<stop offset="0.22" stop-color="#0591C9"/>
<stop offset="0.38" stop-color="#059ED5"/>
<stop offset="0.58" stop-color="#05A5DC"/>
<stop offset="1" stop-color="#05A8DE"/>
</linearGradient>
<linearGradient id="paint2_linear_16_101" x1="134.69" y1="346.961" x2="107.85" y2="291.27" gradientUnits="userSpaceOnUse">
<stop stop-color="#009DB8"/>
<stop offset="0.13" stop-color="#01AAC7"/>
<stop offset="0.3" stop-color="#03B6D4"/>
<stop offset="0.53" stop-color="#04BDDB"/>
<stop offset="1" stop-color="#05C0DE"/>
</linearGradient>
<clipPath id="clip0_16_101">
<rect width="409.68" height="388.57" fill="white"/>
</clipPath>
</defs>
</svg>
